<svg width="24" height="24" viewBox="0 0 24 24" fill="none" xmlns="http://www.w3.org/2000/svg">
<g clip-path="url(#clip0_1342_2425)">
<path d="M16.1277 9.11273L13.2394 12L16.1277 14.8873C16.2092 14.9687 16.2738 15.0655 16.3179 15.1719C16.362 15.2784 16.3847 15.3925 16.3847 15.5077C16.3847 15.6229 16.362 15.737 16.3179 15.8435C16.2738 15.9499 16.2092 16.0466 16.1277 16.1281C16.0463 16.2096 15.9495 16.2742 15.8431 16.3183C15.7366 16.3624 15.6225 16.3851 15.5073 16.3851C15.3921 16.3851 15.278 16.3624 15.1715 16.3183C15.0651 16.2742 14.9684 16.2096 14.8869 16.1281L11.9996 13.2398L9.11234 16.1281C9.03087 16.2096 8.93414 16.2742 8.82769 16.3183C8.72124 16.3624 8.60714 16.3851 8.49192 16.3851C8.3767 16.3851 8.2626 16.3624 8.15615 16.3183C8.0497 16.2742 7.95297 16.2096 7.8715 16.1281C7.79002 16.0466 7.72539 15.9499 7.6813 15.8435C7.6372 15.737 7.61451 15.6229 7.61451 15.5077C7.61451 15.3925 7.6372 15.2784 7.6813 15.1719C7.72539 15.0655 7.79002 14.9687 7.8715 14.8873L10.7599 12L7.8715 9.11273C7.70695 8.94819 7.61451 8.72502 7.61451 8.49231C7.61451 8.25961 7.70695 8.03643 7.8715 7.87189C8.03604 7.70734 8.25922 7.6149 8.49192 7.6149C8.72462 7.6149 8.9478 7.70734 9.11234 7.87189L11.9996 10.7603L14.8869 7.87189C14.9684 7.79041 15.0651 7.72578 15.1715 7.68169C15.278 7.6376 15.3921 7.6149 15.5073 7.6149C15.6225 7.6149 15.7366 7.6376 15.8431 7.68169C15.9495 7.72578 16.0463 7.79041 16.1277 7.87189C16.2092 7.95336 16.2738 8.05009 16.3179 8.15654C16.362 8.26299 16.3847 8.37709 16.3847 8.49231C16.3847 8.60754 16.362 8.72163 16.3179 8.82808C16.2738 8.93454 16.2092 9.03126 16.1277 9.11273ZM23.3996 12C23.3996 14.2547 22.731 16.4588 21.4784 18.3335C20.2257 20.2082 18.4453 21.6694 16.3622 22.5322C14.2791 23.3951 11.987 23.6208 9.77558 23.181C7.5642 22.7411 5.53291 21.6553 3.9386 20.061C2.34428 18.4667 1.25853 16.4354 0.818662 14.224C0.378791 12.0126 0.604549 9.72049 1.46739 7.63741C2.33023 5.55434 3.79139 3.7739 5.66611 2.52125C7.54083 1.2686 9.7449 0.600006 11.9996 0.600006C15.0221 0.603198 17.9199 1.80529 20.0571 3.94251C22.1943 6.07974 23.3964 8.97752 23.3996 12ZM21.6458 12C21.6458 10.0922 21.08 8.22719 20.0201 6.64089C18.9602 5.05459 17.4536 3.81822 15.691 3.08812C13.9284 2.35803 11.9889 2.167 10.1177 2.5392C8.24657 2.9114 6.52779 3.83011 5.17875 5.17914C3.82971 6.52818 2.91101 8.24696 2.53881 10.1181C2.16661 11.9893 2.35764 13.9288 3.08773 15.6914C3.81782 17.454 5.0542 18.9606 6.6405 20.0205C8.2268 21.0804 10.0918 21.6462 11.9996 21.6462C14.557 21.6433 17.0089 20.626 18.8173 18.8177C20.6256 17.0093 21.6429 14.5574 21.6458 12Z" fill="black"/>
</g>
<defs>
<clipPath id="clip0_1342_2425">
<rect width="24" height="24" fill="white"/>
</clipPath>
</defs>
</svg>
