<svg width="140" height="49" viewBox="0 0 140 49" fill="none" xmlns="http://www.w3.org/2000/svg">
<g clip-path="url(#clip0_1342_1948)">
<path d="M138.628 38.0729C138.429 38.1245 138.151 38.1841 137.79 38.2436C137.429 38.3032 137.012 38.3349 136.536 38.3349C135.901 38.3349 135.313 38.2357 134.778 38.0372C134.242 37.8388 133.805 37.4577 133.476 36.8941C133.142 36.3304 132.979 35.4969 132.979 34.3974V17.7342H139.251V12.717H132.979V5.81838H126.744V12.717H114.213V8.70406C114.213 7.39022 114.514 6.65987 115.118 5.96524C115.721 5.27061 116.733 4.92131 118.15 4.92131C118.761 4.92131 119.285 4.97291 119.73 5.08008C120.174 5.18726 120.536 5.28649 120.814 5.37778L122.227 0.364551C121.802 0.205778 121.151 0.0311299 120.278 -0.163366C119.4 -0.353893 118.357 -0.453125 117.134 -0.453125C115.475 -0.453125 113.951 -0.131611 112.557 0.511416C111.164 1.15444 110.049 2.12295 109.207 3.41695C108.366 4.71094 107.945 6.24706 107.945 8.18011V12.717H101.67V17.7342H107.945V43.233H114.213V17.7263H126.74V35.604C126.756 37.4736 127.113 39.0256 127.954 40.26C128.796 41.4945 129.903 42.4035 131.277 42.9949C132.65 43.5863 134.15 43.8681 135.782 43.8403C136.75 43.8125 137.56 43.7213 138.219 43.5823C138.878 43.4434 139.469 43.2886 139.87 43.1656L138.624 38.0729H138.628ZM75.0752 26.0698L70.1215 24.9544C68.4782 24.5575 67.2874 24.0573 66.5492 23.454C65.8148 22.8507 65.4457 22.0568 65.4457 21.0764C65.4457 19.9372 65.9974 19.0004 67.0969 18.2701C68.1964 17.5397 69.5619 17.1746 71.1932 17.1746C72.3999 17.1746 73.4081 17.369 74.2178 17.762C75.0276 18.155 75.6706 18.6551 76.1469 19.2743C76.5042 19.7348 76.786 20.2111 76.9924 20.7033C77.0638 20.87 77.1234 21.0407 77.179 21.2153H83.0456C82.998 20.9295 82.9424 20.6318 82.867 20.3182C82.7201 19.699 82.5256 19.1155 82.2914 18.5598C81.5968 16.9007 80.541 15.571 79.0842 14.4794C77.1472 13.0266 74.4957 12.3002 71.1258 12.3002C68.7918 12.3002 66.7278 12.6813 64.9297 13.4434C63.1316 14.2055 61.7264 15.2693 60.7103 16.6347C59.6981 18.0002 59.1901 19.5919 59.1901 21.4098C59.1901 23.5969 59.8728 25.4069 61.2382 26.8319C62.6037 28.2568 64.7272 29.2889 67.605 29.924L72.777 31.0592C74.2218 31.3767 75.2975 31.853 76.0001 32.4802C76.7026 33.1113 77.0519 33.8972 77.0519 34.838C77.0519 35.9771 76.4843 36.9417 75.3531 37.7316C74.2178 38.5215 72.7055 38.9144 70.8082 38.9144C69.0578 38.9144 67.6367 38.5413 66.5412 37.7911C65.4457 37.0409 64.7193 35.9295 64.3621 34.4569H58.2295C58.2295 34.7348 58.2454 35.0166 58.293 35.2944C58.5312 36.6599 58.9837 37.8705 59.6545 38.9263C60.3213 39.9822 61.2065 40.8832 62.302 41.6294C64.497 43.1219 67.343 43.8681 70.8439 43.8681C73.3367 43.8681 75.5277 43.4593 77.4171 42.6456C79.3065 41.8279 80.7871 40.7046 81.8627 39.2756C82.9384 37.8427 83.4743 36.1994 83.4743 34.3418C83.4743 32.1825 82.7796 30.4201 81.3944 29.0626C80.0091 27.7051 77.8974 26.7049 75.0593 26.0698H75.0752ZM89.7696 43.2211H96.0411V12.7051H89.7696V43.2172V43.2211Z" fill="white"/>
<path d="M92.8928 9.57365C94.971 9.57365 96.6557 7.88894 96.6557 5.81075C96.6557 3.73256 94.971 2.04785 92.8928 2.04785C90.8146 2.04785 89.1299 3.73256 89.1299 5.81075C89.1299 7.88894 90.8146 9.57365 92.8928 9.57365Z" fill="white"/>
<path d="M26.7015 26.7055C25.479 27.928 23.4903 27.928 22.2678 26.7055C21.0452 25.4829 21.0452 23.4943 22.2678 22.2718C23.4903 21.0492 25.479 21.0492 26.7015 22.2718C27.9241 23.4943 27.9241 25.4829 26.7015 26.7055ZM14.5515 14.5554C13.3289 15.778 13.3289 17.7666 14.5515 18.9891C15.774 20.2117 17.7626 20.2117 18.9852 18.9891C20.2077 17.7666 20.2077 15.778 18.9852 14.5554C17.7626 13.3329 15.774 13.3329 14.5515 14.5554ZM6.83514 11.2728C8.05769 12.4954 10.0463 12.4954 11.2689 11.2728C12.4914 10.0503 12.4914 8.06166 11.2689 6.83911C10.0463 5.61656 8.05769 5.61656 6.83514 6.83911C5.61259 8.06166 5.61259 10.0503 6.83514 11.2728ZM42.1302 37.7004C40.9076 36.4779 38.919 36.4779 37.6965 37.7004C36.4739 38.923 36.4739 40.9116 37.6965 42.1342C38.919 43.3567 40.9076 43.3567 42.1302 42.1342C43.3527 40.9116 43.3527 38.923 42.1302 37.7004ZM34.4139 34.4178C35.6364 33.1953 35.6364 31.2067 34.4139 29.9841C33.1913 28.7616 31.2027 28.7616 29.9802 29.9841C28.7576 31.2067 28.7576 33.1953 29.9802 34.4178C31.2027 35.6404 33.1913 35.6404 34.4139 34.4178ZM29.9802 14.5515C28.7576 15.774 28.7576 17.7626 29.9802 18.9852C31.2027 20.2077 33.1913 20.2077 34.4139 18.9852C35.6364 17.7626 35.6364 15.774 34.4139 14.5515C33.1913 13.3289 31.2027 13.3289 29.9802 14.5515ZM26.6975 6.83514C25.475 5.61259 23.4864 5.61259 22.2638 6.83514C21.0413 8.05769 21.0413 10.0463 22.2638 11.2689C23.4864 12.4914 25.475 12.4914 26.6975 11.2689C27.9201 10.0463 27.9201 8.05769 26.6975 6.83514ZM14.5475 3.55253C15.77 4.77507 17.7587 4.77507 18.9812 3.55253C19.9418 2.59196 20.1442 1.16697 19.6004 0.00396864C17.5284 0.412807 15.5478 1.07965 13.6941 1.96877C13.8132 2.54829 14.095 3.10003 14.5475 3.55253ZM45.4088 29.9802C44.1863 31.2027 44.1863 33.1913 45.4088 34.4139C45.8574 34.8624 46.4131 35.1482 46.9926 35.2673C47.8817 33.4136 48.5486 31.4329 48.9574 29.3609C47.7944 28.8171 46.3694 29.0196 45.4088 29.9802ZM37.6925 22.2638C36.47 23.4864 36.47 25.475 37.6925 26.6975C38.9151 27.9201 40.9037 27.9201 42.1262 26.6975C43.3488 25.475 43.3488 23.4864 42.1262 22.2638C40.9037 21.0413 38.9151 21.0413 37.6925 22.2638ZM37.6925 6.83117C36.47 8.05372 36.47 10.0423 37.6925 11.2649C38.9151 12.4874 40.9037 12.4874 42.1262 11.2649C43.3488 10.0423 43.3488 8.05372 42.1262 6.83117C40.9037 5.60863 38.9151 5.60863 37.6925 6.83117ZM29.9762 3.54856C31.1987 4.7711 33.1874 4.7711 34.4099 3.54856C34.8584 3.10003 35.1442 2.54432 35.2633 1.96481C33.4096 1.07568 31.4289 0.408838 29.357 0C28.8132 1.16301 29.0156 2.58799 29.9762 3.54856ZM45.4088 18.9812C46.3694 19.9418 47.7944 20.1442 48.9574 19.6004C48.5486 17.5284 47.8817 15.5478 46.9926 13.6941C46.4131 13.8132 45.8613 14.095 45.4088 14.5475C44.1863 15.77 44.1863 17.7587 45.4088 18.9812ZM11.2649 42.1262C12.4874 40.9037 12.4874 38.9151 11.2649 37.6925C10.0423 36.47 8.05372 36.47 6.83117 37.6925C5.60863 38.9151 5.60863 40.9037 6.83117 42.1262C8.05372 43.3488 10.0423 43.3488 11.2649 42.1262ZM3.54856 29.9762C2.58799 29.0156 1.16301 28.8132 0 29.357C0.408838 31.4289 1.07568 33.4096 1.96481 35.2633C2.54432 35.1442 3.10003 34.8624 3.54856 34.4099C4.7711 33.1874 4.7711 31.1987 3.54856 29.9762ZM18.9812 45.4088C17.7587 44.1863 15.77 44.1863 14.5475 45.4088C14.099 45.8574 13.8132 46.4131 13.6941 46.9926C15.5478 47.8817 17.5284 48.5486 19.6004 48.9574C20.1442 47.7944 19.9418 46.3694 18.9812 45.4088ZM18.9812 34.4099C20.2038 33.1874 20.2038 31.1987 18.9812 29.9762C17.7587 28.7536 15.77 28.7536 14.5475 29.9762C13.325 31.1987 13.325 33.1874 14.5475 34.4099C15.77 35.6324 17.7587 35.6324 18.9812 34.4099ZM6.83117 22.2599C5.60863 23.4824 5.60863 25.471 6.83117 26.6936C8.05372 27.9161 10.0423 27.9161 11.2649 26.6936C12.4874 25.471 12.4874 23.4824 11.2649 22.2599C10.0423 21.0373 8.05372 21.0373 6.83117 22.2599ZM3.54856 18.9772C4.7711 17.7547 4.7711 15.7661 3.54856 14.5435C3.10003 14.095 2.54432 13.8092 1.96481 13.6901C1.07568 15.5438 0.408838 17.5245 0 19.5965C1.16301 20.1402 2.58799 19.9378 3.54856 18.9772ZM34.4099 45.4049C33.1874 44.1823 31.1987 44.1823 29.9762 45.4049C29.0156 46.3654 28.8132 47.7904 29.357 48.9534C31.4289 48.5446 33.4096 47.8777 35.2633 46.9886C35.1442 46.4091 34.8624 45.8574 34.4099 45.4049ZM22.2599 37.6885C21.0373 38.9111 21.0373 40.8997 22.2599 42.1223C23.4824 43.3448 25.471 43.3448 26.6936 42.1223C27.9161 40.8997 27.9161 38.9111 26.6936 37.6885C25.471 36.466 23.4824 36.466 22.2599 37.6885Z" fill="white"/>
</g>
<defs>
<clipPath id="clip0_1342_1948">
<rect width="140" height="49" fill="white"/>
</clipPath>
</defs>
</svg>
