<svg width="291" height="26" viewBox="0 0 291 26" fill="none" xmlns="http://www.w3.org/2000/svg">
<mask id="mask0_1342_3623" style="mask-type:luminance" maskUnits="userSpaceOnUse" x="35" y="0" width="221" height="26">
<path d="M35.375 0H255.375V26H35.375V0Z" fill="white"/>
</mask>
<g mask="url(#mask0_1342_3623)">
<mask id="mask1_1342_3623" style="mask-type:luminance" maskUnits="userSpaceOnUse" x="35" y="0" width="221" height="26">
<path d="M35.375 0H255.375V26H35.375V0Z" fill="white"/>
</mask>
<g mask="url(#mask1_1342_3623)">
<path d="M35.375 1.61981C35.4712 0.332266 35.705 0.0553781 36.7775 0H68.4987C73.2837 0 77.7387 2.82428 79.5537 7.36528C80.4337 9.56656 80.915 11.7955 80.7362 14.1491C80.53 16.6965 79.6362 19.0085 78.0412 20.9883C76.6525 22.705 75.03 24.1587 72.9262 24.9894C71.565 25.5154 70.1762 25.9169 68.7187 25.9446C66.0925 26 63.4662 25.9446 60.8537 26C59.8225 26 58.9975 25.6124 58.3237 24.934C56.0137 22.6081 53.745 20.2545 51.4625 17.901C51.3387 17.7764 51.2562 17.6241 51.16 17.5133C51.2012 16.3919 51.49 16.0181 52.4112 15.9073C52.7137 15.8658 53.0162 15.9073 53.3187 15.9073H67.385C68.0725 15.9073 68.7462 15.9074 69.3787 15.5335C70.5612 14.8552 71.015 13.7476 70.7262 12.197C70.5337 11.2002 69.3375 10.2034 68.2237 10.1065C67.8387 10.0788 67.4537 10.1065 67.0687 10.1065C60.015 10.1065 52.9612 10.0788 45.9212 10.1065C44.395 10.1065 43.2125 9.62194 42.1675 8.51437C40.2425 6.47923 38.235 4.51331 36.2687 2.5197C35.9662 2.21512 35.6775 1.8967 35.4162 1.61981" fill="black"/>
<path d="M144.591 22.608C141.552 22.7049 139.105 21.5835 137.097 19.5622C134.719 17.1671 133.605 13.0968 135.145 9.53879C136.589 6.21611 139.05 4.25018 142.625 3.5718C146.145 2.92111 149.184 3.84869 151.659 6.34071C156.182 10.8679 155 18.1639 149.582 21.2928C147.987 22.2204 146.31 22.7188 144.591 22.5942M150.435 13.083C150.545 9.92644 148.001 7.01909 144.481 6.9914C140.824 6.96371 138.39 9.67724 138.39 13.083C138.39 16.4887 140.892 19.1469 144.564 19.133C148.304 19.133 150.531 15.8934 150.435 13.083ZM130.635 12.1277C130.539 16.8625 128.792 19.5207 125.685 21.3759C122.206 23.4525 116.912 22.9541 113.86 20.0883C109.047 15.5888 109.817 8.11281 115.579 4.7209C119.319 2.53347 123.829 2.87958 127.197 5.69002C129.466 7.58672 130.731 10.0926 130.621 12.1277M126.675 13.1107C126.826 9.59417 123.622 6.96371 120.9 6.96371C117.559 6.96371 114.547 9.53879 114.63 13.0691C114.712 16.5995 117.091 19.1607 120.914 19.1192C124.544 19.0777 126.73 16.018 126.661 13.1107" fill="black"/>
<path d="M180.575 3.94588C180.836 3.9182 181.042 3.87666 181.248 3.87666C183.352 3.87666 185.456 3.82129 187.56 3.87666C192.111 4.01511 195.645 6.85323 196.497 11.4358C197.446 16.4613 194.476 20.6008 190.255 21.9438C189.416 22.2068 188.495 22.2899 187.615 22.3176C185.648 22.3729 183.668 22.3176 181.688 22.3176H180.575C180.3 21.2238 180.286 5.06729 180.575 3.9182M184.328 7.44855C184.122 11.325 184.205 17.7766 184.493 18.8703C185.305 18.8703 186.157 18.9118 186.996 18.8703C188.756 18.7595 190.31 18.1919 191.478 16.7521C193.857 13.817 192.812 9.06836 188.976 7.76697C187.463 7.25473 185.923 7.60084 184.328 7.47624" fill="black"/>
<path d="M90.6493 3.91804C93.5093 3.91804 96.3281 3.62731 99.0643 3.98726C102.901 4.49951 105.458 6.90846 106.517 10.688C107.493 14.1768 106.269 18.2886 102.832 20.6561C101.498 21.5836 100.013 22.1651 98.4456 22.2482C95.8881 22.3866 93.3031 22.2897 90.7456 22.2897C90.4843 21.3483 90.4018 6.31314 90.6356 3.91804M94.4718 18.6763C95.5443 18.6763 96.4931 18.704 97.4281 18.6763C99.3806 18.5932 100.948 17.7487 102.007 16.0597C103.506 13.6646 102.997 10.7572 101.237 8.98513C99.2843 7.00536 96.8781 7.22688 94.4718 7.32379V18.6763ZM163.566 15.8797V21.9436C162.644 22.4005 160.761 22.4282 159.729 21.999V3.94573C160.018 3.91804 160.307 3.84882 160.596 3.84882C163.043 3.84882 165.491 3.87651 167.938 3.84882C170.798 3.80728 173.768 5.82858 174.057 9.55276C174.222 11.8094 173.232 13.6369 171.417 14.9937C171.321 15.0629 171.197 15.1183 171.087 15.1875C171.018 15.229 170.949 15.2982 170.826 15.409C172.036 17.5549 173.232 19.7008 174.442 21.8328C174.043 22.1928 172.764 22.3451 170.606 22.3036C169.272 20.3099 168.282 18.0256 166.948 15.8935H163.566V15.8797ZM170.014 10.6049C170.028 10.3557 170.069 10.0927 170.069 9.82965C170.069 8.43135 169.244 7.39301 167.869 7.28226C166.467 7.18534 165.064 7.25457 163.648 7.25457V12.1555C164.872 12.1555 166.027 12.0863 167.168 12.1555C168.433 12.2386 169.313 11.754 170.014 10.5634" fill="black"/>
<path d="M243.784 14.8268C243.661 17.2358 243.867 19.6032 243.661 22.0121C242.423 22.4552 241.241 22.1644 240.017 22.2336C239.921 21.9568 239.783 21.7214 239.783 21.4999V4.62342C239.783 4.41575 239.866 4.20809 239.934 3.9312H243.606C243.922 5.08029 243.702 6.28476 243.743 7.47539C243.784 8.63833 243.743 9.81512 243.743 10.9781C244.692 11.1996 249.078 11.2549 251.553 11.075V3.94504C252.887 3.7789 254.097 3.83428 255.376 3.90351V22.0121C254.166 22.4552 252.914 22.2475 251.567 22.109V14.813H243.784V14.8268Z" fill="black"/>
<path d="M206.521 3.87598H210.769C211.966 6.90793 213.189 9.95372 214.372 13.0134C215.527 16.0315 216.764 19.0219 217.864 22.0954C217.108 22.4692 216.462 22.2892 215.829 22.3169C215.197 22.3446 214.551 22.3169 213.822 22.3169C213.272 20.8355 212.749 19.4095 212.199 17.942H205.146C204.596 19.3541 204.032 20.8078 203.482 22.2476H199.797C199.687 22.2476 199.591 22.0123 199.467 21.8738C201.804 15.893 204.142 9.92603 206.507 3.88982M208.611 8.43082C207.827 10.5629 207.112 12.4873 206.356 14.5501H208.638C209.339 14.5224 210.068 14.6609 210.824 14.4393C210.096 12.4596 209.381 10.5352 208.611 8.43082Z" fill="black"/>
<path d="M233.787 5.99512C233.058 6.71504 232.398 7.37958 231.614 8.14103C231.298 7.97489 230.968 7.8226 230.666 7.61493C229.621 6.93655 228.521 6.71504 227.269 6.90886C226.444 7.03346 225.991 7.54571 225.468 8.12718V9.37319C226.197 10.4807 227.379 10.7715 228.507 11.1314C229.841 11.5606 231.216 11.8514 232.412 12.6543C234.131 13.7896 234.791 15.354 234.557 17.3615C234.199 20.3796 232.027 22.3455 229.002 22.5809C227.324 22.7193 225.702 22.6639 224.121 22.0409C222.828 21.5425 221.687 20.8364 220.752 19.5628C221.467 18.8151 222.168 18.0814 222.828 17.403C223.433 17.3753 223.653 17.8183 223.997 18.0537C225.468 19.092 227.063 19.5351 228.823 18.9536C229.249 18.8151 229.676 18.5521 229.992 18.2337C231.023 17.1815 230.817 15.9355 229.634 15.3679C228.713 14.9248 227.764 14.5649 226.802 14.2465C225.592 13.845 224.368 13.4989 223.309 12.7097C220.518 10.6192 220.972 6.50737 223.488 4.61067C226.293 2.47862 231.174 3.12931 233.526 5.52441C233.608 5.60748 233.663 5.74592 233.787 5.96743" fill="black"/>
</g>
</g>
</svg>
