<svg width="107" height="30" viewBox="0 0 107 30" fill="none" xmlns="http://www.w3.org/2000/svg">
<path opacity="0.5" d="M38.6039 28.6L44.7039 0.900002H52.3039L49.0039 15.7L55.1039 8.3H63.5039L55.9039 17.5L59.0039 28.6H51.5039L48.4039 18.1L45.9039 28.6H38.6039ZM11.3039 14.7L16.7039 28.6H23.9039L30.1039 0.900002H22.7039L19.5039 15L14.3039 0.900002H6.70391L0.503906 28.5H8.10391C9.10391 24.2 10.2039 19.5 11.3039 14.7ZM35.0039 28.6L39.5039 8.3H32.1039L27.6039 28.6H35.0039ZM32.5039 3.9C32.5039 4.5 32.7039 6.8 36.7039 6.8C40.1039 6.8 41.4039 4.6 41.4039 3C41.4039 1.9 40.5039 0 37.2039 0C34.1039 0 32.5039 2.1 32.5039 3.9ZM103.904 8C100.704 7 96.8039 8.6 94.8039 11.3C95.0039 10.5 95.2039 9.5 95.4039 8.4H87.9039L83.5039 28.6H91.0039L93.5039 17.1C94.0039 15 95.7039 14.1 97.2039 14.5C97.9039 14.7 98.7039 15.2 98.4039 16.9L95.8039 28.6H103.204L106.604 13.1C107.404 9.6 104.604 8.2 103.904 8ZM78.7039 26.8C82.0039 24.1 83.6039 19.6 83.5039 15.4C83.4039 11.3 80.0039 7.5 74.0039 7.5C62.6039 7.5 60.9039 16.4 60.6039 18C59.8039 22.1 60.7039 27.5 66.1039 28.9C69.6039 29.8 75.1039 29.7 78.7039 26.8ZM70.3039 15C70.8039 13.5 72.3039 13.2 73.0039 13.2C74.6039 13.2 75.1039 14.2 74.9039 15.1C74.5039 17.6 73.6039 20.9 73.3039 21.9C72.9039 23 71.9039 23.7 70.6039 23.7C69.3039 23.7 68.6039 22.9 68.7039 21.9C68.9039 20.2 70.0039 15.9 70.3039 15Z" fill="black"/>
</svg>
