<svg width="101" height="40" viewBox="0 0 101 40" fill="none" xmlns="http://www.w3.org/2000/svg">
<g opacity="0.5">
<path d="M81.0942 23.4406L82.7279 23.0447C82.7627 23.0359 82.8195 23.0227 82.8879 22.9995C83.3391 22.8729 83.7256 22.5677 83.966 22.1482C84.2064 21.7287 84.2818 21.2278 84.1764 20.7512L84.1701 20.7204C84.1165 20.492 84.0226 20.2762 83.8932 20.0841C83.7104 19.841 83.4841 19.6377 83.2269 19.4854C82.924 19.3044 82.6071 19.1506 82.2795 19.0256L80.4889 18.3409C79.4844 17.949 78.4762 17.5675 77.4646 17.1963C76.8067 16.9515 76.2498 16.7354 75.7656 16.5788C75.674 16.5491 75.5729 16.5193 75.4919 16.4906C74.9066 16.3032 74.495 16.2249 74.1466 16.2227C73.9139 16.2137 73.6822 16.2581 73.4676 16.3528C73.2439 16.4542 73.0431 16.6037 72.8781 16.7917C72.7963 16.8895 72.719 16.9914 72.6465 17.0971C72.5067 17.3223 72.3913 17.563 72.3023 17.8149C71.9697 18.8439 71.8043 19.924 71.8128 21.0104C71.8191 21.9928 71.8444 23.2531 72.3591 24.1077C72.4834 24.3271 72.6497 24.5168 72.8486 24.6645C73.216 24.9302 73.5866 24.9655 73.9729 24.9942C74.5497 25.0372 75.1087 24.8895 75.6656 24.7538L81.0921 23.4406L81.0963 23.4428L81.0942 23.4406ZM99.3159 14.357C98.87 13.3769 98.2705 12.482 97.5421 11.7096C97.4481 11.6113 97.3471 11.5206 97.24 11.4383C97.1412 11.3608 97.0386 11.2886 96.9326 11.2222C96.8238 11.1594 96.7117 11.103 96.5968 11.0535C96.3762 10.9586 96.1384 10.9158 95.9002 10.9281C95.662 10.9405 95.4294 11.0078 95.2189 11.1252C94.9073 11.2873 94.5704 11.5475 94.122 11.9841C94.0599 12.0481 93.982 12.1209 93.9125 12.1903C93.543 12.5542 93.1314 13.0041 92.6419 13.5267C91.8851 14.3273 91.1408 15.1322 90.4008 15.9459L89.0766 17.3849C88.8344 17.6473 88.6134 17.9318 88.4165 18.2339C88.249 18.4891 88.1303 18.776 88.067 19.0785C88.0301 19.3105 88.0355 19.5477 88.0828 19.7776L88.0891 19.8085C88.1934 20.2848 88.4713 20.7005 88.8618 20.9674C89.2523 21.2342 89.7271 21.3312 90.185 21.2375C90.2576 21.2265 90.3134 21.2132 90.3482 21.2044L97.4095 19.4953C97.9663 19.3608 98.5306 19.2373 99.0306 18.933C99.3664 18.729 99.6853 18.5272 99.9032 18.1203C100.02 17.8965 100.091 17.6495 100.111 17.3959C100.219 16.3881 99.7159 15.2424 99.3127 14.357H99.3159ZM86.6765 17.4687C87.1881 16.795 87.187 15.7916 87.2323 14.9712C87.386 12.23 87.5481 9.48777 87.6765 6.7444C87.726 5.70571 87.8323 4.68025 87.7734 3.63385C87.7249 2.77048 87.7186 1.7781 87.1986 1.07021C86.2796 -0.180187 84.3206 -0.0765385 82.9837 0.116424C82.5742 0.175966 82.1637 0.256459 81.7574 0.357902C81.351 0.459345 80.9479 0.571813 80.5531 0.70413C79.2699 1.14408 77.4667 1.95232 77.1614 3.50043C76.9888 4.37592 77.3972 5.27127 77.7141 6.06958C78.0972 7.0377 78.6215 7.90989 79.0994 8.82177C80.3615 11.2277 81.6479 13.6194 82.93 16.0132C83.3132 16.7277 83.7301 17.633 84.4711 18.0035C84.5206 18.0255 84.5701 18.0454 84.6206 18.063C84.9533 18.1953 85.3154 18.2207 85.6617 18.1358L85.7238 18.1203C86.0438 18.0288 86.3333 17.8469 86.5596 17.5944C86.6007 17.5536 86.6396 17.5117 86.6765 17.4676V17.4687ZM86.0638 24.8079C85.8637 24.5142 85.5804 24.2941 85.254 24.1787C84.9277 24.0633 84.5749 24.0585 84.2459 24.165C84.1685 24.1917 84.0932 24.2245 84.0206 24.2632C83.9079 24.323 83.8005 24.3931 83.6995 24.4727C83.4048 24.7009 83.1574 24.9975 82.9321 25.2952C82.8753 25.3713 82.8227 25.4727 82.7542 25.5367L81.6184 27.173C80.9742 28.0904 80.3394 29.0089 79.7099 29.9429C79.2994 30.546 78.9436 31.0543 78.6636 31.5053C78.6099 31.5902 78.5551 31.685 78.5046 31.76C78.1678 32.3058 77.9772 32.7028 77.8804 33.0578C77.8067 33.2938 77.7835 33.543 77.812 33.7889C77.8435 34.0447 77.9257 34.2917 78.0541 34.5122C78.1225 34.6225 78.1951 34.7294 78.2741 34.8331C78.4441 35.0382 78.6355 35.2227 78.8446 35.3833C79.6289 35.9544 80.4868 36.3646 81.39 36.6822C82.1411 36.9436 82.9219 37.1 83.7122 37.1475C83.8469 37.1541 83.9816 37.1519 84.1153 37.1387C84.2395 37.1277 84.3627 37.1089 84.4859 37.0847C84.608 37.0549 84.729 37.0185 84.848 36.9744C85.0785 36.884 85.2891 36.7439 85.4649 36.5631C85.6312 36.3889 85.7596 36.1783 85.8407 35.9456C85.9722 35.6027 86.0586 35.1672 86.1154 34.521C86.1207 34.4295 86.1333 34.3192 86.1417 34.2178C86.187 33.6819 86.207 33.0523 86.2396 32.3113C86.2954 31.1723 86.3386 30.0388 86.3733 28.902L86.4459 26.8797C86.4628 26.4144 86.4491 25.8984 86.3259 25.4342C86.272 25.2117 86.1842 24.9999 86.0659 24.8068L86.0638 24.8079ZM98.8853 27.9713C98.6484 27.699 98.3127 27.4277 97.7821 27.0914C97.7053 27.0462 97.6158 26.9867 97.5337 26.9349C97.0926 26.657 96.561 26.3648 95.9399 26.0119C94.9862 25.4639 94.0325 24.9291 93.0693 24.3988L91.3672 23.4538C91.2787 23.4273 91.1893 23.3601 91.1061 23.3182C90.7787 23.155 90.4324 23.0017 90.0724 22.9312C89.8688 22.8868 89.6596 22.8782 89.4534 22.9058C89.1132 22.9614 88.7983 23.1279 88.5536 23.3817C88.3089 23.6355 88.1467 23.9636 88.0902 24.3194C88.0642 24.5457 88.072 24.7748 88.1134 24.9986C88.1965 25.4727 88.3986 25.9425 88.6081 26.3538L89.5166 28.1378C90.0218 29.1445 90.5345 30.1446 91.0587 31.1414C91.3966 31.792 91.6787 32.3488 91.943 32.8097C91.9924 32.8968 92.0493 32.9894 92.0924 33.0699C92.4135 33.6246 92.6714 33.9741 92.9335 34.2244C93.103 34.3953 93.3062 34.5265 93.5283 34.607C93.762 34.6886 94.0104 34.7173 94.2557 34.6919C94.3799 34.6765 94.5041 34.6544 94.6262 34.6247C94.7467 34.5906 94.8654 34.5501 94.982 34.5034C95.1083 34.4538 95.2304 34.3942 95.3483 34.3259C96.0391 33.9199 96.6758 33.4206 97.2421 32.8406C97.9211 32.1404 98.5221 31.3774 98.9885 30.503C99.0537 30.3795 99.1095 30.2505 99.1569 30.1193C99.2011 29.9969 99.239 29.8723 99.2706 29.7466C99.2979 29.6176 99.319 29.4886 99.3337 29.3574C99.3569 29.1008 99.3286 28.842 99.2506 28.5976C99.1736 28.3637 99.0486 28.1502 98.8843 27.9724L98.8853 27.9713Z" fill="black"/>
<path fill-rule="evenodd" clip-rule="evenodd" d="M40.2866 10.6146C40.2866 9.14475 41.4298 7.94287 42.8098 7.94287C44.1699 7.94287 45.2741 9.14364 45.3331 10.6344V31.4876C45.3331 32.9574 44.1899 34.1593 42.8098 34.1593C41.3898 34.1593 40.2866 32.9585 40.2866 31.4876V10.6135V10.6146ZM37.9402 23.4945C37.9202 23.9091 37.8223 24.6743 37.3096 25.2345C36.758 25.8354 36.0085 25.9799 35.5748 25.9799C33.7706 25.9898 31.9673 25.9953 30.1631 26.0008C28.3588 26.0063 26.5545 26.0107 24.7513 26.0218C24.9786 26.7906 25.3852 27.4879 25.9345 28.0506C26.2425 28.3581 26.5871 28.6228 26.9598 28.8379C27.1767 28.9835 27.9262 29.3969 28.8525 29.3969C29.8378 29.3969 30.7062 29.0651 31.5536 28.6097L31.6242 28.5711C32.2137 28.2513 32.8211 27.9216 33.4653 27.8014C34.0958 27.6978 34.7664 27.8224 35.259 28.2778C35.8506 28.8159 36.0875 29.6031 35.8706 30.4103C35.6148 31.3211 34.8853 32.1083 34.1158 32.5847C33.6756 32.854 33.2138 33.0828 32.7358 33.2683C31.5154 33.7221 30.2248 33.9331 28.9304 33.8902C28.6146 33.8902 28.2798 33.8902 27.9451 33.8483C27.5931 33.8008 27.244 33.7316 26.8998 33.641C26.3559 33.5168 25.827 33.3293 25.3229 33.082C24.8187 32.8473 24.3369 32.563 23.8839 32.2329C23.4319 31.893 23.0096 31.5118 22.6218 31.0939C22.237 30.6704 21.8873 30.2133 21.5765 29.7277C20.5122 28.0297 20.0185 25.938 20.1175 23.9091C20.1964 21.921 20.827 19.933 21.9712 18.3176C22.0923 18.1284 22.2267 17.9489 22.3733 17.7806C22.4323 17.7101 22.4891 17.6417 22.5428 17.5722C23.9555 15.7639 25.8419 15.1916 26.6198 14.9557L26.6629 14.9424C28.242 14.4727 29.9146 14.4727 31.4936 14.9424C31.8684 15.0461 33.9779 15.7297 35.6138 17.5722C35.6927 17.6549 35.9096 17.924 36.1854 18.3176C37.2223 19.7963 37.5791 21.1746 37.7002 21.641L37.7033 21.652C37.8212 22.1074 37.9402 22.7293 37.9402 23.4945ZM26.3672 20.0774C25.5886 20.7408 25.0467 21.66 24.8292 22.6863H33.4253C33.1933 21.6612 32.6459 20.7444 31.8673 20.0774C30.7041 19.1038 29.482 19.042 29.1072 19.042C28.7325 19.042 27.5103 19.1038 26.3672 20.0774ZM59.0556 14.5896C56.8082 14.5896 54.7576 15.6459 53.2986 17.3649V17.3032C53.2802 16.6048 52.9976 15.9428 52.5132 15.4626C52.0287 14.9825 51.382 14.7236 50.7153 14.7429C50.0486 14.7622 49.4166 15.0581 48.9582 15.5655C48.4998 16.073 48.2526 16.7504 48.2711 17.4487V37.3492C48.2711 38.819 49.3953 39.9999 50.7943 39.9999C52.1933 39.9999 53.3175 38.8201 53.3175 37.3492V31.1369C54.7765 32.835 56.8071 33.9123 59.0746 33.9123C63.5895 33.9123 67.257 29.6252 67.257 24.2829C67.2369 18.9406 63.5705 14.5918 59.0556 14.5918V14.5896ZM57.9514 29.5822C55.3881 29.5822 53.2986 27.2424 53.2986 24.3226C53.2986 21.3819 55.3692 19.042 57.9514 19.042C60.5146 19.042 62.6042 21.3819 62.6042 24.3226C62.5842 27.2424 60.5146 29.5822 57.9514 29.5822ZM16.3321 25.6678L15.5036 27.5732C15.1235 28.4094 14.7554 29.2515 14.3994 30.0993C14.2857 30.3596 14.172 30.6253 14.0562 30.8954C12.4804 34.5683 10.6098 38.9271 6.5328 39.8533C4.56116 40.3087 1.58421 39.6879 0.479966 37.7406C-0.624282 35.7735 1.01261 33.5164 3.12216 34.0336C3.4548 34.1107 3.78218 34.2816 4.11167 34.4548C4.66116 34.7414 5.21907 35.0336 5.8233 34.9035C6.3949 34.7999 6.74965 34.3654 7.20335 33.8064C7.68886 33.2133 8.03943 32.5124 8.22865 31.7566C8.21788 31.7328 8.20805 31.7085 8.19917 31.6838C8.19011 31.6592 8.18028 31.635 8.1697 31.6111C7.656 30.6076 7.20861 29.7112 6.83386 28.9625C6.58964 28.474 6.37701 28.0484 6.19805 27.6978L5.33802 25.9887C5.00464 25.3204 4.66708 24.6544 4.32536 23.9907C3.7121 22.7787 3.06799 21.5841 2.39371 20.4082C1.66422 19.1248 0.914716 17.6957 1.52632 16.184C1.75609 15.5982 2.18748 15.1241 2.73508 14.8555C3.28268 14.587 3.90658 14.5437 4.48326 14.734C5.75172 15.1376 6.31385 16.4023 6.84018 17.5855C6.93492 17.7994 7.02861 18.01 7.12545 18.2129C7.97285 19.9727 8.8013 21.7336 9.62974 23.4934C9.70238 23.6687 9.81396 23.9069 9.94976 24.1969C10.0708 24.456 10.2108 24.7559 10.3592 25.0878C10.4371 25.2609 10.5108 25.4208 10.5782 25.5664C10.6635 25.7527 10.7382 25.9126 10.7929 26.0405C11.1772 25.036 11.5667 24.037 11.9561 23.038C12.3456 22.039 12.7351 21.04 13.1193 20.0355C13.1299 19.9793 13.2214 19.7654 13.3604 19.4423C13.4772 19.1689 13.6278 18.8182 13.7899 18.4202L13.9573 17.999C14.4689 16.6923 15.0847 15.1222 16.4521 14.6932C16.9373 14.5459 17.4542 14.5605 17.9311 14.7349C18.408 14.9094 18.8212 15.2351 19.1132 15.6669C19.409 16.1013 19.5269 16.5986 19.5469 17.0959C19.5627 18.1952 19.0564 19.3739 18.6206 20.3862C18.5188 20.6201 18.4199 20.8554 18.3237 21.0919L18.2711 21.2143C18.1511 21.4976 17.8237 22.2673 17.2584 23.5364C17.0542 23.9907 16.8595 24.4461 16.6616 24.9059L16.3321 25.6689V25.6678Z" fill="black"/>
</g>
</svg>
